PathFileType  4	(X/Y/Z) C:\Users\antoi\Documents\MyRepositories\mobilecap\ResultsAnalysis
DataRate	CameraRate	NumFrames	NumMarkers	Units	OrigDataRate	OrigDataStartFrame	OrigNumFrames
100.0	100.0	4	51	mm	100.0	76	150
Frame#	Time	r_knee			r_shank_antsup			r_ankle			r_calc			r_5meta			r_toe			L_knee			L_shank_antsup			L_ankle			L_calc			L_5meta			L_toe			r_sh2			r_sh3			r_sh4			L_sh2			L_sh3			r_thigh1			r_thigh2			r_thigh3			r_thigh4			r_thigh5			L_thigh1			L_thigh2			L_thigh3			L_thigh4			r.ASIS			r.PSIS			L.ASIS			L.PSIS			C7			R_Shoulder			L_Shoulder			R_Sternum			L_Sternum			R_humerus			R_elbow_med			R_elbow_lat			R_forearm			R_wrist_radius			R_wrist_ulna			L_humerus			L_elbow_med			L_elbow_lat			L_forearm			L_wrist_radius			L_wrist_ulna			R_HJC			L_HJC			R_HJC_reg			L_HJC_reg			
		X1	Y1	Z1	X2	Y2	Z2	X3	Y3	Z3	X4	Y4	Z4	X5	Y5	Z5	X6	Y6	Z6	X7	Y7	Z7	X8	Y8	Z8	X9	Y9	Z9	X10	Y10	Z10	X11	Y11	Z11	X12	Y12	Z12	X13	Y13	Z13	X14	Y14	Z14	X15	Y15	Z15	X16	Y16	Z16	X17	Y17	Z17	X18	Y18	Z18	X19	Y19	Z19	X20	Y20	Z20	X21	Y21	Z21	X22	Y22	Z22	X23	Y23	Z23	X24	Y24	Z24	X25	Y25	Z25	X26	Y26	Z26	X27	Y27	Z27	X28	Y28	Z28	X29	Y29	Z29	X30	Y30	Z30	X31	Y31	Z31	X32	Y32	Z32	X33	Y33	Z33	X34	Y34	Z34	X35	Y35	Z35	X36	Y36	Z36	X37	Y37	Z37	X38	Y38	Z38	X39	Y39	Z39	X40	Y40	Z40	X41	Y41	Z41	X42	Y42	Z42	X43	Y43	Z43	X44	Y44	Z44	X45	Y45	Z45	X46	Y46	Z46	X47	Y47	Z47	X48	Y48	Z48	X49	Y49	Z49	X50	Y50	Z50	X51	Y51	Z51	

76	0.75000000	657.32404	446.72932	-73.08324	652.79652	380.65634	-81.94536	315.92920	230.63238	-104.10983	258.35560	261.72973	-155.56592	336.27976	71.79439	-78.43142	383.01546	70.14124	-129.45406	839.34165	491.18015	-373.80750	872.98426	406.59642	-380.98613	810.90027	92.32976	-329.75396	749.63926	59.75950	-277.50926	932.21318	41.18156	-353.44519	974.75177	61.04259	-298.51127	558.38595	313.48753	-94.40056	609.36233	433.34046	-44.66744	514.68949	366.77374	-44.61324	784.61341	415.45407	-397.46603	781.02135	294.10013	-388.34884	793.05730	725.16730	-128.56449	788.51402	612.55840	-120.83581	764.37802	595.99443	-60.78983	719.53204	730.56426	-43.54864	715.45655	616.17333	-39.41239	804.98646	815.37352	-399.11911	839.48406	677.52382	-403.82814	695.71716	788.07266	-410.52936	725.82446	656.26943	-391.71287	794.74026	919.72967	-97.21541	607.96198	965.33535	-167.47530	810.65993	932.89705	-330.88940	609.07368	975.45162	-264.20095	660.80266	1427.31823	-289.61265	768.20302	1424.10591	-142.76394	687.03593	1335.06032	-447.68573	775.73109	1332.00582	-277.88108	768.20554	1320.14576	-312.87032	774.62235	1202.59194	-22.25984	696.67943	1120.97136	-9.86964	750.30130	1121.75139	24.43621	808.27307	987.91295	19.32153	833.69368	886.73065	-5.45436	819.09014	886.43454	37.81124	623.35048	1098.97950	-476.18236	578.96365	1017.95593	-401.99855	577.68279	1011.80447	-459.36963	596.64776	869.83034	-483.67101	617.18284	762.20514	-469.83200	571.96789	764.38688	-472.40946	721.68551	842.96825	-137.42725	715.59446	866.83662	-326.49414	729.04960	849.77234	-137.72875	730.82013	865.87491	-291.69755	
77	0.76000000	679.51153	447.60442	-73.16021	674.57617	381.30667	-82.18698	334.62959	238.71408	-104.23345	277.89354	270.52395	-156.36349	351.30447	79.91293	-76.30864	398.00061	76.25797	-127.17673	843.69030	491.14913	-373.76287	876.51204	406.23225	-381.10268	811.19962	92.32567	-329.74164	749.67139	59.92342	-277.57446	932.21883	41.09875	-353.46046	974.55405	60.51804	-298.66664	578.85607	315.93200	-94.56179	632.11861	434.89832	-44.96929	535.78372	370.21979	-45.02945	788.31193	415.94314	-397.80999	783.48232	294.63271	-388.68510	806.33954	728.72556	-128.31314	805.13484	616.05993	-120.16237	781.00910	599.07428	-60.16594	732.20890	732.16827	-43.68371	731.36754	618.10857	-39.26257	814.36021	816.12165	-398.89882	847.08059	677.84050	-403.63916	704.61125	789.92489	-411.12825	733.38817	657.81194	-392.44040	803.92998	922.03375	-97.35775	617.56650	967.31448	-168.77889	821.12727	934.14601	-330.84034	619.41637	977.73486	-265.44945	671.34141	1429.29887	-291.84942	777.63814	1426.77996	-144.12583	699.12894	1336.74262	-449.46602	786.48219	1334.28097	-278.89734	779.42098	1322.43421	-313.84714	783.00639	1205.52591	-22.90611	704.85829	1124.12325	-10.58705	758.53085	1124.78162	23.70326	816.04153	990.71856	18.28025	840.43219	889.20525	-6.61195	826.77013	889.12193	36.94645	637.11101	1100.20744	-477.81848	592.73721	1019.07624	-403.74341	591.80511	1012.70670	-461.05714	612.42898	870.82878	-485.01565	634.14644	763.56328	-470.96509	588.63719	765.21758	-473.60117	730.94332	845.14234	-137.65827	725.96478	868.41154	-326.83533	738.51071	851.15081	-138.64271	741.45305	867.72796	-292.44464	
78	0.77000000	701.46228	449.25272	-73.17713	696.32227	382.69359	-82.16182	354.16889	245.80189	-104.38001	297.90261	277.63426	-157.15269	368.79909	87.50281	-73.97382	415.29231	82.22661	-124.82996	847.95746	491.17669	-373.81008	879.91276	405.90009	-381.18065	811.49496	92.30875	-329.75599	749.70068	60.10494	-277.65771	932.23422	41.01922	-353.49033	974.35751	60.03432	-298.83346	599.64956	318.72463	-94.50627	654.43413	437.23589	-45.54970	556.84801	374.06792	-45.66791	791.95655	416.36690	-398.41947	785.99895	295.12389	-389.23792	819.49756	732.60680	-127.93534	821.50555	619.97411	-119.41707	797.39247	602.51320	-59.48443	744.84860	734.02188	-43.62582	747.24231	620.50404	-39.02430	823.59399	816.89445	-398.39692	854.64343	678.23302	-403.27079	713.48052	791.82104	-411.71342	741.10595	659.28274	-393.56807	812.97463	924.41054	-97.46082	627.01790	969.35003	-169.87474	831.30154	935.37146	-330.75975	629.52236	979.93483	-266.52559	681.79205	1431.31724	-294.01340	786.80570	1429.36235	-145.30237	711.31036	1338.55164	-451.18136	797.08511	1336.53603	-279.78198	790.58028	1324.72718	-314.70550	791.00011	1208.38771	-23.35218	712.75985	1127.07721	-11.32926	766.40555	1127.67723	23.08089	823.69671	993.50378	17.48658	847.39759	891.76561	-7.48228	834.43966	891.80164	36.29040	651.06679	1101.54775	-479.56858	606.62834	1020.25407	-405.71738	606.15671	1013.71204	-462.96586	628.52451	871.96276	-486.48203	651.53178	765.07841	-472.15560	605.72918	766.13366	-474.97231	740.06746	847.36865	-137.73567	736.04879	869.93383	-327.02361	747.79477	852.70321	-139.34265	751.77449	869.52908	-292.99669	
79	0.78000000	723.11284	451.58998	-73.13929	718.01456	384.73131	-81.87376	374.49595	251.72428	-104.50792	318.36230	283.10374	-157.83099	388.43021	94.17529	-71.63085	434.59692	87.65349	-122.59400	852.07836	491.22833	-373.91077	883.10030	405.59762	-381.22671	811.78118	92.30093	-329.76807	749.74185	60.29053	-277.73430	932.26211	40.95230	-353.52664	974.20323	59.63401	-298.97069	620.75982	321.73686	-94.23734	676.30501	440.21180	-46.31633	577.91426	378.10927	-46.42237	795.40410	416.75179	-399.07968	788.41720	295.59397	-389.83260	832.49519	736.77259	-127.47108	837.62124	624.27309	-118.63552	813.55402	606.27775	-58.75789	757.45362	736.16166	-43.42925	763.07501	623.31427	-38.70873	832.68910	817.61483	-397.73026	862.08112	678.59912	-402.79438	722.33406	793.78641	-412.22339	748.88765	660.70332	-394.98433	821.95331	926.90135	-97.56518	636.35665	971.45207	-170.79090	841.21178	936.60867	-330.69782	639.41697	982.03870	-267.45709	692.15066	1433.34596	-296.09957	795.73782	1431.86466	-146.33879	723.54094	1340.46222	-452.82333	807.54504	1338.77175	-280.56649	801.65429	1326.98499	-315.48972	798.65017	1211.18475	-23.65206	720.40506	1129.87068	-12.13880	773.93397	1130.45704	22.51754	831.18665	996.25670	16.94148	854.55257	894.39579	-8.04060	841.97929	894.46914	35.85589	665.19880	1102.96898	-481.42680	620.70045	1021.40129	-407.90634	620.74101	1014.78492	-465.09026	644.92171	873.21509	-488.08433	669.30357	766.72149	-473.41979	623.22583	767.11119	-476.53458	749.13595	849.67619	-137.68952	745.89083	871.41577	-327.09021	756.96948	854.47590	-139.84244	761.82825	871.28952	-293.37802	
